<svg width="16" height="16" viewBox="0 0 16 16" fill="none" xmlns="http://www.w3.org/2000/svg">
<path fill-rule="evenodd" clip-rule="evenodd" d="M8 2.5C4.96243 2.5 2.5 4.96243 2.5 8C2.5 11.0376 4.96243 13.5 8 13.5C11.0376 13.5 13.5 11.0376 13.5 8C13.5 4.96243 11.0376 2.5 8 2.5ZM1.5 8C1.5 4.41015 4.41015 1.5 8 1.5C11.5899 1.5 14.5 4.41015 14.5 8C14.5 11.5899 11.5899 14.5 8 14.5C4.41015 14.5 1.5 11.5899 1.5 8Z" fill="black"/>
<path fill-rule="evenodd" clip-rule="evenodd" d="M8 5C8.27614 5 8.5 5.22386 8.5 5.5V8.5C8.5 8.77614 8.27614 9 8 9C7.72386 9 7.5 8.77614 7.5 8.5V5.5C7.5 5.22386 7.72386 5 8 5Z" fill="black"/>
<path fill-rule="evenodd" clip-rule="evenodd" d="M7.25 10.5C7.25 10.0858 7.58579 9.75 8 9.75H8.00667C8.42088 9.75 8.75667 10.0858 8.75667 10.5C8.75667 10.9142 8.42088 11.25 8.00667 11.25H8C7.58579 11.25 7.25 10.9142 7.25 10.5Z" fill="black"/>
</svg>
